{"title":"Dragon.Blade.2015.HDTS.x264-MenaceIISociety","uid":11742850,"size":1721494808,"categoryP":"video","categoryS":"movies","magnet":"?xt=urn:btih:d65c5bb666e705cfc4291c8779560d2c6ad6dbfe&amp;dn=Dragon.Blade.2015.HDTS.x264-MenaceIISociety&amp;tr=udp%3A%2F%2Ftracker.openbittorrent.com%3A80&amp;tr=udp%3A%2F%2Fopen.demonii.com%3A1337&amp;tr=udp%3A%2F%2Ftracker.coppersurfer.tk%3A6969&amp;tr=udp%3A%2F%2Fexodus.desync.com%3A6969","seeders":4,"leechers":1,"uploader":".BONE.","files":5,"time":1425864007,"description":"Dragon.Blade.2015.HDTS.x264-MenaceIISociety\n &lt;a href=&quot;\nhttp://www.imdb.com/title/tt3672840/&quot; rel=&quot;nofollow&quot; target=&quot;_NEW&quot;&gt;\nhttp://www.imdb.com/title/tt3672840/&lt;/a&gt;\nSource: TC720P [THANKS]\n\nNICE English audio, chinese and english subs hardcoded\n\nGeneral\nComplete name: Dragon.Blade.2015.HDTS.x264-MenaceIISociety.mp4\nFormat: MPEG-4\nFormat profile: Base Media\nCodec ID: isom\nFile size: 1.57 GiB\nDuration: 2h 7mn\nOverall bit rate mode: Variable\nOverall bit rate: 1 765 Kbps\nEncoded date: UTC 2015-03-07 20:21:39\nTagged date: UTC 2015-03-07 20:21:39\n\nVideo\nID: 1\nFormat: AVC\nFormat/Info: Advanced Video Codec\nFormat profile: &lt;a class=&quot;__cf_email__&quot; href=&quot;/cdn-cgi/l/email-protection&quot; data-cfemail=&quot;fcb4959b94bcb0c8d2cd&quot;&gt;[email&amp;#160;protected]&lt;/a&gt;&lt;script cf-hash='f9e31' type=&quot;text/javascript&quot;&gt;\n/* &lt;![CDATA[ */!function(){try{var t=&quot;currentScript&quot;in document?document.currentScript:function(){for(var t=document.getElementsByTagName(&quot;script&quot;),e=t.length;e--;)if(t[e].getAttribute(&quot;cf-hash&quot;))return t[e]}();if(t&amp;&amp;t.previousSibling){var e,r,n,i,c=t.previousSibling,a=c.getAttribute(&quot;data-cfemail&quot;);if(a){for(e=&quot;&quot;,r=parseInt(a.substr(0,2),16),n=2;a.length-n;n+=2)i=parseInt(a.substr(n,2),16)^r,e+=String.fromCharCode(i);e=document.createTextNode(e),c.parentNode.replaceChild(e,c)}}}catch(u){}}();/* ]]&gt; */&lt;/script&gt;\nFormat settings, CABAC: Yes\nFormat settings, ReFrames: 3 frames\nCodec ID: avc1\nCodec ID/Info: Advanced Video Coding\nDuration: 2h 7mn\nBit rate mode: Variable\nBit rate: 1 627 Kbps\nMaximum bit rate: 40.0 Mbps\nWidth: 720 pixels\nHeight: 304 pixels\nDisplay aspect ratio: 2.35:1\nFrame rate mode: Constant\nFrame rate: 23.976 fps\nColor space: YUV\nChroma subsampling: 4:2:0\nBit depth: 8 bits\nScan type: Progressive\nBits/(Pixel*Frame): 0.310\nStream size: 1.44 GiB (92%)\nWriting library: x264 core 144 r2525 40bb568\n\nAudio\nID: 2\nFormat: AAC\nFormat/Info: Advanced Audio Codec\nFormat profile: LC\nCodec ID: 40\nDuration: 2h 7mn\nBit rate mode: Variable\nBit rate: 132 Kbps\nMaximum bit rate: 179 Kbps\nChannel(s): 2 channels\nChannel positions: Front: L R\nSampling rate: 48.0 KHz\nCompression mode: Lossy\nStream size: 121 MiB (8%)\nLanguage: English\nEncoded date: UTC 2015-03-07 19:13:16\nTagged date: UTC 2015-03-07 20:22:07\n &lt;a href=&quot;\nhttp://i.imgur.com/Tj969lN.jpg&quot; rel=&quot;nofollow&quot; target=&quot;_NEW&quot;&gt;\nhttp://i.imgur.com/Tj969lN.jpg&lt;/a&gt; &lt;a href=&quot;\nhttp://i.imgur.com/1H7iTQs.jpg&quot; rel=&quot;nofollow&quot; target=&quot;_NEW&quot;&gt;\nhttp://i.imgur.com/1H7iTQs.jpg&lt;/a&gt; &lt;a href=&quot;\nhttp://i.imgur.com/ZKfOMSk.jpg&quot; rel=&quot;nofollow&quot; target=&quot;_NEW&quot;&gt;\nhttp://i.imgur.com/ZKfOMSk.jpg&lt;/a&gt; &lt;a href=&quot;\nhttp://i.imgur.com/gw9cHn0.jpg&quot; rel=&quot;nofollow&quot; target=&quot;_NEW&quot;&gt;\nhttp://i.imgur.com/gw9cHn0.jpg&lt;/a&gt; &lt;a href=&quot;\nhttp://i.imgur.com/yPRbf4I.jpg&quot; rel=&quot;nofollow&quot; target=&quot;_NEW&quot;&gt;\nhttp://i.imgur.com/yPRbf4I.jpg&lt;/a&gt; &lt;a href=&quot;\nhttp://i.imgur.com/gOQL1Kc.jpg&quot; rel=&quot;nofollow&quot; target=&quot;_NEW&quot;&gt;\nhttp://i.imgur.com/gOQL1Kc.jpg&lt;/a&gt;","torrent":{"xt":"urn:btih:d65c5bb666e705cfc4291c8779560d2c6ad6dbfe","amp;dn":"Dragon.Blade.2015.HDTS.x264-MenaceIISociety","amp;tr":["udp%3A%2F%2Ftracker.openbittorrent.com%3A80","udp%3A%2F%2Fopen.demonii.com%3A1337","udp%3A%2F%2Ftracker.coppersurfer.tk%3A6969","udp%3A%2F%2Fexodus.desync.com%3A6969"],"infoHash":"d65c5bb666e705cfc4291c8779560d2c6ad6dbfe","infoHashBuffer":{"type":"Buffer","data":[214,92,91,182,102,231,5,207,196,41,28,135,121,86,13,44,106,214,219,254]},"announce":[],"urlList":[]}}